# xmcd CD database file
#
# Track frame offsets:
#	150
#	17711
#	38683
#	53175
#	72668
#	90741
#	110590
#	127425
#	147475
#	162996
#	176558
#	197820
#	215333
#	234637
#
# Disc length: 3343 seconds
#
# Revision: 0
# Processed by: cddbd v1.5.2PL0 Copyright (c) Steve Scherf et al.
# Submitted via: CDex 1.51
#
DISCID=d70d0d0e
DTITLE=Tia McGraff - Outside of the Circle
DYEAR=1900
DGENRE=Country
TTITLE0=Outside of the Circle
TTITLE1=Cracks in the Sidewalk
TTITLE2=Love Lies Bleeding
TTITLE3=Love Calls the Shots
TTITLE4=Can't Rain Everyday
TTITLE5=Catfish Deacon
TTITLE6=Eyes of My Eyes
TTITLE7=Rest on Me
TTITLE8=Life Lines
TTITLE9=I End Up Goin' That Way
TTITLE10=Cross the Line
TTITLE11=What a Life
TTITLE12=Dog House for Sale
TTITLE13=Until We Meet Again
EXTD=
EXTT0=
EXTT1=
EXTT2=
EXTT3=
EXTT4=
EXTT5=
EXTT6=
EXTT7=
EXTT8=
EXTT9=
EXTT10=
EXTT11=
EXTT12=
EXTT13=
PLAYORDER=
